Coordinates
version=1
nRows=4
nColumns=63
inDegrees=yes

Units are S.I. units (second, meters, Newtons, ...)
If the header above contains a line with 'inDegrees', this indicates whether rotational values are in degrees (yes) or radians (no).

endheader
time	pelvis_tilt	pelvis_list	pelvis_rotation	pelvis_tx	pelvis_ty	pelvis_tz	hip_flexion_r	hip_adduction_r	hip_rotation_r	knee_angle_r	knee_angle_r_beta	ankle_angle_r	subtalar_angle_r	mtp_angle_r	hip_flexion_l	hip_adduction_l	hip_rotation_l	knee_angle_l	knee_angle_l_beta	ankle_angle_l	subtalar_angle_l	mtp_angle_l	L5_S1_Flex_Ext	L5_S1_Lat_Bending	L5_S1_axial_rotation	L4_L5_Flex_Ext	L4_L5_Lat_Bending	L4_L5_axial_rotation	L3_L4_Flex_Ext	L3_L4_Lat_Bending	L3_L4_axial_rotation	L2_L3_Flex_Ext	L2_L3_Lat_Bending	L2_L3_axial_rotation	L1_L2_Flex_Ext	L1_L2_Lat_Bending	L1_L2_axial_rotation	L1_T12_Flex_Ext	L1_T12_Lat_Bending	L1_T12_axial_rotation	Abs_r3	Abs_r2	Abs_r1	Abs_t1	Abs_t2	neck_flexion	neck_bending	neck_rotation	arm_flex_r	arm_add_r	arm_rot_r	elbow_flex_r	pro_sup_r	wrist_flex_r	wrist_dev_r	arm_flex_l	arm_add_l	arm_rot_l	elbow_flex_l	pro_sup_l	wrist_flex_l	wrist_dev_l
      9.16666667	      3.82996726	     -0.56930779	    179.16584768	      2.54579355	      0.89039937	      0.20519490	      5.73643199	      1.22507534	      1.83306277	     10.56048889	      0.18431530	     17.58090721	    -17.77993949	      0.00000000	      5.30058851	      0.45055571	      3.42677707	     11.26770175	      0.19665849	     16.54258528	    -16.90664205	      0.00000000	     -0.00011615	     -0.13733427	     -0.07347660	     -0.00021571	     -0.18265458	     -0.07806889	     -0.00019083	     -0.33391455	     -0.07806889	     -0.00013275	     -0.33391455	     -0.06429203	     -0.00010786	     -0.28005205	     -0.05969974	     -0.00006637	     -0.21273079	     -0.05510745	     -0.00082968	     -1.55355274	     -0.40865481	      0.00000000	      0.00000000	     -0.00000000	      0.00000000	      0.00000000	      5.72022887	    -10.56608334	     40.90070126	     26.17712615	     48.17267058	      0.00000000	      5.00000014	      2.32529198	    -12.24950389	     30.59409690	     27.27998327	     59.25139109	      0.00000000	      5.00000014
      9.20000000	      3.81506162	     -0.68538197	    179.16440168	      2.54554945	      0.89026484	      0.20505920	      5.72479179	      1.09818958	      1.76307220	     10.68213374	      0.18643840	     17.65078581	    -17.70596489	      0.00000000	      5.27084613	      0.61507745	      3.42059691	     11.23851582	      0.19614910	     16.47798547	    -17.24068820	      0.00000000	      0.00041630	     -0.14777320	     -0.07759254	      0.00077310	     -0.19653836	     -0.08244208	      0.00068393	     -0.35929576	     -0.08244208	      0.00047579	     -0.35929576	     -0.06789347	      0.00038657	     -0.30133911	     -0.06304394	      0.00023787	     -0.22890069	     -0.05819441	      0.00297357	     -1.67164002	     -0.43154645	      0.00000000	      0.00000000	     -0.00000000	      0.00000000	      0.00000000	      5.78341795	    -10.62051336	     41.26292463	     26.17596065	     48.85045623	      0.00000000	      5.00000014	      2.38986686	    -12.34440285	     30.84383121	     27.35797374	     60.58071630	      0.00000000	      5.00000014
      9.23333333	      3.80965261	     -0.77133124	    179.20351579	      2.54521031	      0.89010664	      0.20509856	      5.69793844	      0.99305555	      1.79942843	     10.75373958	      0.18768816	     17.64952275	    -17.72337231	      0.00000000	      5.25337455	      0.76799235	      3.11519914	     11.17509896	      0.19504227	     16.43242710	    -17.32794831	      0.00000000	      0.00073053	     -0.15280351	     -0.09363782	      0.00135667	     -0.20322866	     -0.09949018	      0.00120019	     -0.37152644	     -0.09949018	      0.00083493	     -0.37152644	     -0.08193309	      0.00067837	     -0.31159691	     -0.07608073	      0.00041743	     -0.23669263	     -0.07022836	      0.00521813	     -1.72854382	     -0.52078544	      0.00000000	      0.00000000	     -0.00000000	      0.00000000	      0.00000000	      5.72996815	    -10.65831633	     41.01006181	     26.26419043	     49.27219448	      0.00000000	      5.00000014	      2.30358702	    -12.25561674	     30.29303540	     27.38522132	     60.66310507	      0.00000000	      5.00000014
      9.26666667	      3.80586491	     -0.94005002	    178.76470827	      2.54501990	      0.88997398	      0.20465083	      5.78117574	      0.84050195	      2.33241574	     10.91751611	      0.19054660	     17.71832376	    -17.65058550	      0.00000000	      5.13479399	      0.97750800	      2.16136605	     10.92845548	      0.19073753	     16.13499652	    -17.37753509	      0.00000000	      0.00047160	     -0.16681316	     -0.01983697	      0.00087581	     -0.22186150	     -0.02107679	      0.00077479	     -0.40558952	     -0.02107679	      0.00053899	     -0.40558952	     -0.01735735	      0.00043793	     -0.34016540	     -0.01611754	      0.00026947	     -0.25839358	     -0.01487773	      0.00336858	     -1.88702382	     -0.11032730	      0.00000000	      0.00000000	     -0.00000000	      0.00000000	      0.00000000	      5.89316390	    -10.85605313	     42.09232872	     26.31559780	     49.65323853	      0.00000000	      5.00000014	      2.38831709	    -12.37863383	     31.02951852	     27.39785197	     59.92819080	      0.00000000	      5.00000014
